<?xml version="1.0" encoding="utf-8" standalone="no"?>
<!DOCTYPE svg PUBLIC "-//W3C//DTD SVG 1.1//EN"
  "http://www.w3.org/Graphics/SVG/1.1/DTD/svg11.dtd">
<svg xmlns:xlink="http://www.w3.org/1999/xlink" width="717.403125pt" height="337.074375pt" viewBox="0 0 717.403125 337.074375" xmlns="http://www.w3.org/2000/svg" version="1.1">
 <metadata>
  <rdf:RDF xmlns:dc="http://purl.org/dc/elements/1.1/" xmlns:cc="http://creativecommons.org/ns#" xmlns:rdf="http://www.w3.org/1999/02/22-rdf-syntax-ns#">
   <cc:Work>
    <dc:type rdf:resource="http://purl.org/dc/dcmitype/StillImage"/>
    <dc:date>2023-05-12T03:33:30.416374</dc:date>
    <dc:format>image/svg+xml</dc:format>
    <dc:creator>
     <cc:Agent>
      <dc:title>Matplotlib v3.7.1, https://matplotlib.org/</dc:title>
     </cc:Agent>
    </dc:creator>
   </cc:Work>
  </rdf:RDF>
 </metadata>
 <defs>
  <style type="text/css">*{stroke-linejoin: round; stroke-linecap: butt}</style>
 </defs>
 <g id="figure_1">
  <g id="patch_1">
   <path d="M 0 337.074375 
L 717.403125 337.074375 
L 717.403125 0 
L 0 0 
z
" style="fill: #ffffff"/>
  </g>
  <g id="axes_1">
   <g id="patch_2">
    <path d="M 40.603125 299.518125 
L 710.203125 299.518125 
L 710.203125 22.318125 
L 40.603125 22.318125 
z
" style="fill: #ffffff"/>
   </g>
   <g id="matplotlib.axis_1">
    <g id="xtick_1">
     <g id="line2d_1">
      <defs>
       <path id="m71f91752fe" d="M 0 0 
L 0 3.5 
" style="stroke: #000000; stroke-width: 0.8"/>
      </defs>
      <g>
       <use xlink:href="#m71f91752fe" x="71.039489" y="299.518125" style="stroke: #000000; stroke-width: 0.8"/>
      </g>
     </g>
     <g id="text_1">
      <!-- 0 -->
      <g transform="translate(67.858239 314.116563) scale(0.1 -0.1)">
       <defs>
        <path id="DejaVuSans-30" d="M 2034 4250 
Q 1547 4250 1301 3770 
Q 1056 3291 1056 2328 
Q 1056 1369 1301 889 
Q 1547 409 2034 409 
Q 2525 409 2770 889 
Q 3016 1369 3016 2328 
Q 3016 3291 2770 3770 
Q 2525 4250 2034 4250 
z
M 2034 4750 
Q 2819 4750 3233 4129 
Q 3647 3509 3647 2328 
Q 3647 1150 3233 529 
Q 2819 -91 2034 -91 
Q 1250 -91 836 529 
Q 422 1150 422 2328 
Q 422 3509 836 4129 
Q 1250 4750 2034 4750 
z
" transform="scale(0.015625)"/>
       </defs>
       <use xlink:href="#DejaVuSans-30"/>
      </g>
     </g>
    </g>
    <g id="xtick_2">
     <g id="line2d_2">
      <g>
       <use xlink:href="#m71f91752fe" x="192.906811" y="299.518125" style="stroke: #000000; stroke-width: 0.8"/>
      </g>
     </g>
     <g id="text_2">
      <!-- 200 -->
      <g transform="translate(183.363061 314.116563) scale(0.1 -0.1)">
       <defs>
        <path id="DejaVuSans-32" d="M 1228 531 
L 3431 531 
L 3431 0 
L 469 0 
L 469 531 
Q 828 903 1448 1529 
Q 2069 2156 2228 2338 
Q 2531 2678 2651 2914 
Q 2772 3150 2772 3378 
Q 2772 3750 2511 3984 
Q 2250 4219 1831 4219 
Q 1534 4219 1204 4116 
Q 875 4013 500 3803 
L 500 4441 
Q 881 4594 1212 4672 
Q 1544 4750 1819 4750 
Q 2544 4750 2975 4387 
Q 3406 4025 3406 3419 
Q 3406 3131 3298 2873 
Q 3191 2616 2906 2266 
Q 2828 2175 2409 1742 
Q 1991 1309 1228 531 
z
" transform="scale(0.015625)"/>
       </defs>
       <use xlink:href="#DejaVuSans-32"/>
       <use xlink:href="#DejaVuSans-30" x="63.623047"/>
       <use xlink:href="#DejaVuSans-30" x="127.246094"/>
      </g>
     </g>
    </g>
    <g id="xtick_3">
     <g id="line2d_3">
      <g>
       <use xlink:href="#m71f91752fe" x="314.774132" y="299.518125" style="stroke: #000000; stroke-width: 0.8"/>
      </g>
     </g>
     <g id="text_3">
      <!-- 400 -->
      <g transform="translate(305.230382 314.116563) scale(0.1 -0.1)">
       <defs>
        <path id="DejaVuSans-34" d="M 2419 4116 
L 825 1625 
L 2419 1625 
L 2419 4116 
z
M 2253 4666 
L 3047 4666 
L 3047 1625 
L 3713 1625 
L 3713 1100 
L 3047 1100 
L 3047 0 
L 2419 0 
L 2419 1100 
L 313 1100 
L 313 1709 
L 2253 4666 
z
" transform="scale(0.015625)"/>
       </defs>
       <use xlink:href="#DejaVuSans-34"/>
       <use xlink:href="#DejaVuSans-30" x="63.623047"/>
       <use xlink:href="#DejaVuSans-30" x="127.246094"/>
      </g>
     </g>
    </g>
    <g id="xtick_4">
     <g id="line2d_4">
      <g>
       <use xlink:href="#m71f91752fe" x="436.641454" y="299.518125" style="stroke: #000000; stroke-width: 0.8"/>
      </g>
     </g>
     <g id="text_4">
      <!-- 600 -->
      <g transform="translate(427.097704 314.116563) scale(0.1 -0.1)">
       <defs>
        <path id="DejaVuSans-36" d="M 2113 2584 
Q 1688 2584 1439 2293 
Q 1191 2003 1191 1497 
Q 1191 994 1439 701 
Q 1688 409 2113 409 
Q 2538 409 2786 701 
Q 3034 994 3034 1497 
Q 3034 2003 2786 2293 
Q 2538 2584 2113 2584 
z
M 3366 4563 
L 3366 3988 
Q 3128 4100 2886 4159 
Q 2644 4219 2406 4219 
Q 1781 4219 1451 3797 
Q 1122 3375 1075 2522 
Q 1259 2794 1537 2939 
Q 1816 3084 2150 3084 
Q 2853 3084 3261 2657 
Q 3669 2231 3669 1497 
Q 3669 778 3244 343 
Q 2819 -91 2113 -91 
Q 1303 -91 875 529 
Q 447 1150 447 2328 
Q 447 3434 972 4092 
Q 1497 4750 2381 4750 
Q 2619 4750 2861 4703 
Q 3103 4656 3366 4563 
z
" transform="scale(0.015625)"/>
       </defs>
       <use xlink:href="#DejaVuSans-36"/>
       <use xlink:href="#DejaVuSans-30" x="63.623047"/>
       <use xlink:href="#DejaVuSans-30" x="127.246094"/>
      </g>
     </g>
    </g>
    <g id="xtick_5">
     <g id="line2d_5">
      <g>
       <use xlink:href="#m71f91752fe" x="558.508776" y="299.518125" style="stroke: #000000; stroke-width: 0.8"/>
      </g>
     </g>
     <g id="text_5">
      <!-- 800 -->
      <g transform="translate(548.965026 314.116563) scale(0.1 -0.1)">
       <defs>
        <path id="DejaVuSans-38" d="M 2034 2216 
Q 1584 2216 1326 1975 
Q 1069 1734 1069 1313 
Q 1069 891 1326 650 
Q 1584 409 2034 409 
Q 2484 409 2743 651 
Q 3003 894 3003 1313 
Q 3003 1734 2745 1975 
Q 2488 2216 2034 2216 
z
M 1403 2484 
Q 997 2584 770 2862 
Q 544 3141 544 3541 
Q 544 4100 942 4425 
Q 1341 4750 2034 4750 
Q 2731 4750 3128 4425 
Q 3525 4100 3525 3541 
Q 3525 3141 3298 2862 
Q 3072 2584 2669 2484 
Q 3125 2378 3379 2068 
Q 3634 1759 3634 1313 
Q 3634 634 3220 271 
Q 2806 -91 2034 -91 
Q 1263 -91 848 271 
Q 434 634 434 1313 
Q 434 1759 690 2068 
Q 947 2378 1403 2484 
z
M 1172 3481 
Q 1172 3119 1398 2916 
Q 1625 2713 2034 2713 
Q 2441 2713 2670 2916 
Q 2900 3119 2900 3481 
Q 2900 3844 2670 4047 
Q 2441 4250 2034 4250 
Q 1625 4250 1398 4047 
Q 1172 3844 1172 3481 
z
" transform="scale(0.015625)"/>
       </defs>
       <use xlink:href="#DejaVuSans-38"/>
       <use xlink:href="#DejaVuSans-30" x="63.623047"/>
       <use xlink:href="#DejaVuSans-30" x="127.246094"/>
      </g>
     </g>
    </g>
    <g id="xtick_6">
     <g id="line2d_6">
      <g>
       <use xlink:href="#m71f91752fe" x="680.376098" y="299.518125" style="stroke: #000000; stroke-width: 0.8"/>
      </g>
     </g>
     <g id="text_6">
      <!-- 1000 -->
      <g transform="translate(667.651098 314.116563) scale(0.1 -0.1)">
       <defs>
        <path id="DejaVuSans-31" d="M 794 531 
L 1825 531 
L 1825 4091 
L 703 3866 
L 703 4441 
L 1819 4666 
L 2450 4666 
L 2450 531 
L 3481 531 
L 3481 0 
L 794 0 
L 794 531 
z
" transform="scale(0.015625)"/>
       </defs>
       <use xlink:href="#DejaVuSans-31"/>
       <use xlink:href="#DejaVuSans-30" x="63.623047"/>
       <use xlink:href="#DejaVuSans-30" x="127.246094"/>
       <use xlink:href="#DejaVuSans-30" x="190.869141"/>
      </g>
     </g>
    </g>
    <g id="text_7">
     <!-- Epochs -->
     <g transform="translate(357.4875 327.794688) scale(0.1 -0.1)">
      <defs>
       <path id="DejaVuSans-45" d="M 628 4666 
L 3578 4666 
L 3578 4134 
L 1259 4134 
L 1259 2753 
L 3481 2753 
L 3481 2222 
L 1259 2222 
L 1259 531 
L 3634 531 
L 3634 0 
L 628 0 
L 628 4666 
z
" transform="scale(0.015625)"/>
       <path id="DejaVuSans-70" d="M 1159 525 
L 1159 -1331 
L 581 -1331 
L 581 3500 
L 1159 3500 
L 1159 2969 
Q 1341 3281 1617 3432 
Q 1894 3584 2278 3584 
Q 2916 3584 3314 3078 
Q 3713 2572 3713 1747 
Q 3713 922 3314 415 
Q 2916 -91 2278 -91 
Q 1894 -91 1617 61 
Q 1341 213 1159 525 
z
M 3116 1747 
Q 3116 2381 2855 2742 
Q 2594 3103 2138 3103 
Q 1681 3103 1420 2742 
Q 1159 2381 1159 1747 
Q 1159 1113 1420 752 
Q 1681 391 2138 391 
Q 2594 391 2855 752 
Q 3116 1113 3116 1747 
z
" transform="scale(0.015625)"/>
       <path id="DejaVuSans-6f" d="M 1959 3097 
Q 1497 3097 1228 2736 
Q 959 2375 959 1747 
Q 959 1119 1226 758 
Q 1494 397 1959 397 
Q 2419 397 2687 759 
Q 2956 1122 2956 1747 
Q 2956 2369 2687 2733 
Q 2419 3097 1959 3097 
z
M 1959 3584 
Q 2709 3584 3137 3096 
Q 3566 2609 3566 1747 
Q 3566 888 3137 398 
Q 2709 -91 1959 -91 
Q 1206 -91 779 398 
Q 353 888 353 1747 
Q 353 2609 779 3096 
Q 1206 3584 1959 3584 
z
" transform="scale(0.015625)"/>
       <path id="DejaVuSans-63" d="M 3122 3366 
L 3122 2828 
Q 2878 2963 2633 3030 
Q 2388 3097 2138 3097 
Q 1578 3097 1268 2742 
Q 959 2388 959 1747 
Q 959 1106 1268 751 
Q 1578 397 2138 397 
Q 2388 397 2633 464 
Q 2878 531 3122 666 
L 3122 134 
Q 2881 22 2623 -34 
Q 2366 -91 2075 -91 
Q 1284 -91 818 406 
Q 353 903 353 1747 
Q 353 2603 823 3093 
Q 1294 3584 2113 3584 
Q 2378 3584 2631 3529 
Q 2884 3475 3122 3366 
z
" transform="scale(0.015625)"/>
       <path id="DejaVuSans-68" d="M 3513 2113 
L 3513 0 
L 2938 0 
L 2938 2094 
Q 2938 2591 2744 2837 
Q 2550 3084 2163 3084 
Q 1697 3084 1428 2787 
Q 1159 2491 1159 1978 
L 1159 0 
L 581 0 
L 581 4863 
L 1159 4863 
L 1159 2956 
Q 1366 3272 1645 3428 
Q 1925 3584 2291 3584 
Q 2894 3584 3203 3211 
Q 3513 2838 3513 2113 
z
" transform="scale(0.015625)"/>
       <path id="DejaVuSans-73" d="M 2834 3397 
L 2834 2853 
Q 2591 2978 2328 3040 
Q 2066 3103 1784 3103 
Q 1356 3103 1142 2972 
Q 928 2841 928 2578 
Q 928 2378 1081 2264 
Q 1234 2150 1697 2047 
L 1894 2003 
Q 2506 1872 2764 1633 
Q 3022 1394 3022 966 
Q 3022 478 2636 193 
Q 2250 -91 1575 -91 
Q 1294 -91 989 -36 
Q 684 19 347 128 
L 347 722 
Q 666 556 975 473 
Q 1284 391 1588 391 
Q 1994 391 2212 530 
Q 2431 669 2431 922 
Q 2431 1156 2273 1281 
Q 2116 1406 1581 1522 
L 1381 1569 
Q 847 1681 609 1914 
Q 372 2147 372 2553 
Q 372 3047 722 3315 
Q 1072 3584 1716 3584 
Q 2034 3584 2315 3537 
Q 2597 3491 2834 3397 
z
" transform="scale(0.015625)"/>
      </defs>
      <use xlink:href="#DejaVuSans-45"/>
      <use xlink:href="#DejaVuSans-70" x="63.183594"/>
      <use xlink:href="#DejaVuSans-6f" x="126.660156"/>
      <use xlink:href="#DejaVuSans-63" x="187.841797"/>
      <use xlink:href="#DejaVuSans-68" x="242.822266"/>
      <use xlink:href="#DejaVuSans-73" x="306.201172"/>
     </g>
    </g>
   </g>
   <g id="matplotlib.axis_2">
    <g id="ytick_1">
     <g id="line2d_7">
      <defs>
       <path id="ma67b96b5cd" d="M 0 0 
L -3.5 0 
" style="stroke: #000000; stroke-width: 0.8"/>
      </defs>
      <g>
       <use xlink:href="#ma67b96b5cd" x="40.603125" y="286.918125" style="stroke: #000000; stroke-width: 0.8"/>
      </g>
     </g>
     <g id="text_8">
      <!-- 0 -->
      <g transform="translate(27.240625 290.717344) scale(0.1 -0.1)">
       <use xlink:href="#DejaVuSans-30"/>
      </g>
     </g>
    </g>
    <g id="ytick_2">
     <g id="line2d_8">
      <g>
       <use xlink:href="#ma67b96b5cd" x="40.603125" y="237.429488" style="stroke: #000000; stroke-width: 0.8"/>
      </g>
     </g>
     <g id="text_9">
      <!-- 5 -->
      <g transform="translate(27.240625 241.228707) scale(0.1 -0.1)">
       <defs>
        <path id="DejaVuSans-35" d="M 691 4666 
L 3169 4666 
L 3169 4134 
L 1269 4134 
L 1269 2991 
Q 1406 3038 1543 3061 
Q 1681 3084 1819 3084 
Q 2600 3084 3056 2656 
Q 3513 2228 3513 1497 
Q 3513 744 3044 326 
Q 2575 -91 1722 -91 
Q 1428 -91 1123 -41 
Q 819 9 494 109 
L 494 744 
Q 775 591 1075 516 
Q 1375 441 1709 441 
Q 2250 441 2565 725 
Q 2881 1009 2881 1497 
Q 2881 1984 2565 2268 
Q 2250 2553 1709 2553 
Q 1456 2553 1204 2497 
Q 953 2441 691 2322 
L 691 4666 
z
" transform="scale(0.015625)"/>
       </defs>
       <use xlink:href="#DejaVuSans-35"/>
      </g>
     </g>
    </g>
    <g id="ytick_3">
     <g id="line2d_9">
      <g>
       <use xlink:href="#ma67b96b5cd" x="40.603125" y="187.940851" style="stroke: #000000; stroke-width: 0.8"/>
      </g>
     </g>
     <g id="text_10">
      <!-- 10 -->
      <g transform="translate(20.878125 191.74007) scale(0.1 -0.1)">
       <use xlink:href="#DejaVuSans-31"/>
       <use xlink:href="#DejaVuSans-30" x="63.623047"/>
      </g>
     </g>
    </g>
    <g id="ytick_4">
     <g id="line2d_10">
      <g>
       <use xlink:href="#ma67b96b5cd" x="40.603125" y="138.452214" style="stroke: #000000; stroke-width: 0.8"/>
      </g>
     </g>
     <g id="text_11">
      <!-- 15 -->
      <g transform="translate(20.878125 142.251433) scale(0.1 -0.1)">
       <use xlink:href="#DejaVuSans-31"/>
       <use xlink:href="#DejaVuSans-35" x="63.623047"/>
      </g>
     </g>
    </g>
    <g id="ytick_5">
     <g id="line2d_11">
      <g>
       <use xlink:href="#ma67b96b5cd" x="40.603125" y="88.963577" style="stroke: #000000; stroke-width: 0.8"/>
      </g>
     </g>
     <g id="text_12">
      <!-- 20 -->
      <g transform="translate(20.878125 92.762796) scale(0.1 -0.1)">
       <use xlink:href="#DejaVuSans-32"/>
       <use xlink:href="#DejaVuSans-30" x="63.623047"/>
      </g>
     </g>
    </g>
    <g id="ytick_6">
     <g id="line2d_12">
      <g>
       <use xlink:href="#ma67b96b5cd" x="40.603125" y="39.474941" style="stroke: #000000; stroke-width: 0.8"/>
      </g>
     </g>
     <g id="text_13">
      <!-- 25 -->
      <g transform="translate(20.878125 43.274159) scale(0.1 -0.1)">
       <use xlink:href="#DejaVuSans-32"/>
       <use xlink:href="#DejaVuSans-35" x="63.623047"/>
      </g>
     </g>
    </g>
    <g id="text_14">
     <!-- Error -->
     <g transform="translate(14.798437 173.103281) rotate(-90) scale(0.1 -0.1)">
      <defs>
       <path id="DejaVuSans-72" d="M 2631 2963 
Q 2534 3019 2420 3045 
Q 2306 3072 2169 3072 
Q 1681 3072 1420 2755 
Q 1159 2438 1159 1844 
L 1159 0 
L 581 0 
L 581 3500 
L 1159 3500 
L 1159 2956 
Q 1341 3275 1631 3429 
Q 1922 3584 2338 3584 
Q 2397 3584 2469 3576 
Q 2541 3569 2628 3553 
L 2631 2963 
z
" transform="scale(0.015625)"/>
      </defs>
      <use xlink:href="#DejaVuSans-45"/>
      <use xlink:href="#DejaVuSans-72" x="63.183594"/>
      <use xlink:href="#DejaVuSans-72" x="102.546875"/>
      <use xlink:href="#DejaVuSans-6f" x="141.410156"/>
      <use xlink:href="#DejaVuSans-72" x="202.591797"/>
     </g>
    </g>
   </g>
   <g id="line2d_13">
    <path d="M 71.039489 274.544144 
L 71.648825 266.712754 
L 72.258162 264.102194 
L 72.867498 257.029724 
L 73.476835 252.032194 
L 74.086172 248.174401 
L 74.695508 249.342793 
L 75.304845 241.372137 
L 75.914182 238.791089 
L 76.523518 235.144813 
L 77.132855 233.495514 
L 78.351528 221.983229 
L 78.960865 219.13945 
L 79.570201 218.028158 
L 80.179538 214.481324 
L 80.788874 213.900859 
L 81.398211 207.680671 
L 82.007548 206.333838 
L 82.616884 222.70824 
L 83.226221 221.154986 
L 83.835557 211.744133 
L 84.444894 218.969096 
L 85.054231 221.805701 
L 85.663567 230.945248 
L 86.272904 217.962773 
L 86.88224 212.228501 
L 87.491577 212.748242 
L 88.100914 211.590259 
L 88.71025 205.639726 
L 89.319587 203.951014 
L 89.928924 204.053958 
L 90.53826 209.200318 
L 91.147597 206.200585 
L 91.756933 212.502436 
L 92.36627 199.661592 
L 93.584943 195.918323 
L 94.19428 195.65899 
L 94.803616 195.765483 
L 95.412953 190.979804 
L 96.02229 189.085912 
L 96.631626 201.731091 
L 97.240963 231.456154 
L 98.459636 206.919324 
L 99.068973 212.618576 
L 99.678309 208.337093 
L 100.287646 214.360912 
L 100.896982 205.923563 
L 101.506319 201.211378 
L 102.115656 202.501264 
L 102.724992 197.944902 
L 103.334329 201.049363 
L 103.943666 197.259606 
L 104.553002 194.599514 
L 105.162339 188.861929 
L 105.771675 194.453641 
L 106.381012 187.263437 
L 106.990349 181.618111 
L 107.599685 179.496847 
L 108.209022 180.052023 
L 108.818358 175.537146 
L 109.427695 178.016194 
L 110.037032 168.524617 
L 110.646368 176.237771 
L 111.255705 161.445569 
L 111.865041 165.844665 
L 112.474378 156.598734 
L 113.083715 161.677472 
L 113.693051 148.277203 
L 114.302388 157.281689 
L 114.911725 223.827131 
L 115.521061 185.360153 
L 116.130398 205.560672 
L 117.349071 181.994716 
L 117.958408 161.961903 
L 118.567744 173.191267 
L 119.177081 180.819412 
L 119.786417 166.63702 
L 120.395754 203.198067 
L 121.005091 168.460156 
L 121.614427 171.465968 
L 122.223764 191.573663 
L 122.8331 162.681492 
L 123.442437 165.360924 
L 124.051774 161.587242 
L 124.66111 160.244996 
L 125.270447 145.883816 
L 125.879783 146.297707 
L 126.48912 150.875846 
L 127.098457 153.775136 
L 127.707793 154.267183 
L 128.31713 150.0192 
L 128.926467 147.931058 
L 129.535803 144.817535 
L 130.14514 146.421445 
L 130.754476 145.496016 
L 131.363813 130.934668 
L 131.97315 139.62429 
L 132.582486 141.335015 
L 133.191823 131.845854 
L 133.801159 133.507164 
L 134.410496 127.560708 
L 135.019833 134.328366 
L 135.629169 157.917882 
L 136.238506 158.458154 
L 136.847842 156.822075 
L 137.457179 137.654998 
L 138.066516 140.594943 
L 138.675852 130.125747 
L 139.285189 142.544253 
L 139.894525 135.786506 
L 140.503862 136.787336 
L 141.113199 131.628875 
L 141.722535 123.836714 
L 142.331872 102.367801 
L 142.941209 126.528871 
L 143.550545 112.068362 
L 144.159882 128.55175 
L 144.769218 123.095831 
L 145.378555 120.954641 
L 145.987892 121.053582 
L 146.597228 122.048626 
L 147.206565 119.20767 
L 147.815901 121.089055 
L 148.425238 117.094835 
L 149.034575 110.419446 
L 149.643911 123.066286 
L 150.253248 72.08599 
L 150.862584 111.178358 
L 152.081258 95.280692 
L 152.690594 93.231818 
L 153.299931 102.20707 
L 153.909268 109.428706 
L 154.518604 101.749401 
L 155.127941 100.24143 
L 155.737277 57.353896 
L 156.346614 96.904897 
L 156.955951 94.966687 
L 157.565287 94.708601 
L 158.174624 88.925613 
L 158.78396 89.287852 
L 159.393297 73.988802 
L 160.002634 82.548465 
L 160.61197 88.580308 
L 161.221307 86.781686 
L 161.830643 76.568217 
L 162.43998 77.69203 
L 163.049317 86.716838 
L 163.658653 79.840677 
L 164.26799 82.067084 
L 164.877326 82.142201 
L 165.486663 65.634857 
L 166.096 77.370172 
L 166.705336 70.858798 
L 167.314673 81.269245 
L 167.92401 78.705046 
L 168.533346 79.785212 
L 169.142683 79.98083 
L 169.752019 73.516143 
L 170.361356 77.961274 
L 170.970693 83.912563 
L 171.580029 76.803102 
L 172.189366 74.378981 
L 172.798702 77.059716 
L 174.017376 72.915621 
L 175.236049 76.067693 
L 175.845385 58.794565 
L 176.454722 74.451644 
L 177.064059 57.322218 
L 177.673395 70.064678 
L 178.282732 67.943876 
L 178.892068 69.758319 
L 179.501405 69.791526 
L 180.110742 70.218103 
L 180.720078 70.459444 
L 181.329415 68.848341 
L 181.938752 52.450171 
L 182.548088 68.508907 
L 183.157425 67.929264 
L 183.766761 52.540598 
L 184.376098 72.102527 
L 184.985435 74.824587 
L 185.594771 79.186578 
L 186.204108 187.61079 
L 186.813444 183.311052 
L 188.032118 172.653194 
L 188.641454 172.396146 
L 189.250791 73.621107 
L 189.860127 168.520331 
L 190.469464 165.070895 
L 191.078801 145.007461 
L 191.688137 147.801222 
L 192.297474 169.610635 
L 192.906811 162.084755 
L 193.516147 165.781554 
L 194.125484 153.622967 
L 194.73482 155.495253 
L 195.344157 154.221724 
L 195.953494 123.550649 
L 196.56283 149.943724 
L 197.172167 142.39331 
L 197.781503 123.166927 
L 198.39084 112.500244 
L 199.000177 114.992742 
L 199.609513 109.95566 
L 200.21885 110.636944 
L 200.828186 104.424623 
L 201.437523 101.361468 
L 202.04686 91.853334 
L 202.656196 50.314758 
L 203.265533 117.784596 
L 203.874869 34.918125 
L 204.484206 110.55201 
L 205.093543 106.554222 
L 205.702879 128.579237 
L 206.312216 123.941584 
L 206.921553 102.311147 
L 207.530889 104.970814 
L 208.140226 116.240398 
L 208.749562 118.655627 
L 209.358899 122.08104 
L 209.968236 97.320883 
L 210.577572 107.576337 
L 211.186909 114.26598 
L 211.796245 116.434374 
L 212.405582 169.170476 
L 213.014919 106.362776 
L 213.624255 109.489061 
L 214.233592 80.589357 
L 214.842928 117.942193 
L 215.452265 142.557118 
L 216.061602 101.432262 
L 216.670938 113.581977 
L 217.280275 111.308732 
L 217.889611 99.687368 
L 218.498948 90.482818 
L 219.108285 93.969945 
L 219.717621 88.199851 
L 220.326958 96.588287 
L 220.936295 89.021308 
L 221.545631 86.518747 
L 222.154968 90.755555 
L 222.764304 65.067674 
L 223.373641 84.891201 
L 223.982978 94.360199 
L 224.592314 83.417287 
L 225.201651 77.995142 
L 225.810987 83.075664 
L 227.029661 78.973535 
L 227.638997 58.67599 
L 228.248334 74.076247 
L 228.85767 74.334371 
L 229.467007 76.226593 
L 230.076344 67.905478 
L 230.68568 72.661121 
L 231.295017 72.674015 
L 231.904354 92.303264 
L 232.51369 65.070619 
L 233.123027 71.036104 
L 233.732363 53.114257 
L 234.3417 68.167397 
L 234.951037 68.028036 
L 235.560373 68.805846 
L 236.16971 72.61232 
L 236.779046 72.266675 
L 237.388383 87.385115 
L 237.99772 75.315313 
L 238.607056 90.986683 
L 239.216393 58.152661 
L 239.825729 67.670592 
L 240.435066 74.907558 
L 241.044403 65.652735 
L 241.653739 59.923381 
L 242.263076 95.681915 
L 242.872412 64.248936 
L 243.481749 64.050939 
L 244.091086 65.049437 
L 244.700422 69.152586 
L 245.309759 67.7176 
L 245.919096 111.396234 
L 246.528432 112.215784 
L 247.137769 95.634002 
L 247.747105 108.410405 
L 248.356442 98.210113 
L 248.965779 100.334331 
L 249.575115 111.768799 
L 250.793788 102.769968 
L 251.403125 102.302255 
L 252.012462 157.081247 
L 252.621798 119.449351 
L 253.231135 105.805051 
L 253.840471 168.696231 
L 254.449808 96.265409 
L 255.059145 95.635663 
L 255.668481 206.133179 
L 256.277818 186.221311 
L 256.887154 103.30198 
L 257.496491 100.80363 
L 258.105828 151.335714 
L 258.715164 162.740676 
L 259.324501 100.547733 
L 259.933838 137.794066 
L 260.543174 96.881412 
L 261.152511 135.186824 
L 261.761847 103.467242 
L 262.371184 192.96319 
L 262.980521 199.655777 
L 263.589857 204.091327 
L 264.199194 195.140834 
L 264.80853 189.619086 
L 265.417867 171.607273 
L 266.027204 180.876283 
L 266.63654 188.290036 
L 267.245877 189.007076 
L 267.855213 96.482379 
L 268.46455 96.248607 
L 269.073887 205.157646 
L 269.683223 187.575686 
L 270.29256 181.658926 
L 270.901896 85.726156 
L 271.511233 162.233724 
L 272.12057 199.778006 
L 272.729906 84.446161 
L 273.339243 87.206997 
L 273.94858 196.872004 
L 274.557916 189.86392 
L 275.167253 98.980352 
L 275.776589 182.641727 
L 276.385926 177.912381 
L 276.995263 111.548828 
L 277.604599 199.78989 
L 278.213936 152.488431 
L 278.823272 153.485135 
L 279.432609 179.262339 
L 280.041946 193.580014 
L 280.651282 179.166862 
L 281.260619 168.937252 
L 281.869955 147.570811 
L 282.479292 185.687976 
L 283.088629 123.176932 
L 283.697965 205.139816 
L 284.307302 132.867828 
L 284.916639 174.399807 
L 285.525975 178.989169 
L 286.135312 204.71407 
L 286.744648 163.460547 
L 287.353985 197.282392 
L 287.963322 126.503951 
L 288.572658 122.547658 
L 289.181995 177.91056 
L 289.791331 176.756059 
L 290.400668 142.710713 
L 291.010005 200.006453 
L 291.619341 213.35953 
L 292.838014 173.18936 
L 293.447351 186.420289 
L 294.056688 211.016223 
L 294.666024 191.532961 
L 295.275361 231.484217 
L 295.884697 224.764916 
L 296.494034 147.487481 
L 297.103371 216.759717 
L 297.712707 203.65045 
L 298.322044 171.66608 
L 298.931381 123.094622 
L 299.540717 168.262886 
L 300.75939 214.371192 
L 301.368727 137.674159 
L 301.978064 201.873397 
L 302.5874 178.470578 
L 303.196737 221.489091 
L 303.806073 185.272132 
L 304.41541 124.105165 
L 305.024747 219.402346 
L 305.634083 234.59218 
L 306.24342 210.945368 
L 306.852756 149.983519 
L 307.462093 187.226473 
L 308.07143 172.590556 
L 308.680766 196.037776 
L 309.290103 128.602721 
L 309.899439 216.700647 
L 310.508776 187.185903 
L 311.118113 137.433224 
L 311.727449 210.330814 
L 312.336786 181.780012 
L 312.946123 180.877293 
L 313.555459 199.953471 
L 314.164796 214.18312 
L 314.774132 197.210059 
L 315.383469 141.181911 
L 315.992806 190.861994 
L 316.602142 225.785871 
L 317.211479 173.433298 
L 317.820815 195.677226 
L 318.430152 189.541363 
L 319.648825 133.358912 
L 320.258162 220.732175 
L 320.867498 194.826423 
L 321.476835 180.85312 
L 322.086172 188.892456 
L 322.695508 184.385913 
L 323.304845 173.759337 
L 323.914182 208.701399 
L 324.523518 164.201195 
L 325.132855 231.418152 
L 325.742191 231.984745 
L 326.351528 171.662795 
L 326.960865 131.965411 
L 327.570201 181.378298 
L 328.179538 175.26727 
L 328.788874 130.682528 
L 329.398211 210.701704 
L 330.007548 202.382642 
L 330.616884 192.05561 
L 331.226221 179.283483 
L 331.835557 182.391909 
L 332.444894 209.271612 
L 333.054231 195.911281 
L 333.663567 138.296647 
L 334.272904 193.331375 
L 334.88224 206.481193 
L 335.491577 154.99438 
L 336.100914 176.665368 
L 336.71025 186.090483 
L 337.319587 175.39367 
L 337.928924 186.863158 
L 338.53826 174.202839 
L 339.147597 157.703102 
L 339.756933 171.081623 
L 340.36627 154.440563 
L 340.975607 197.754041 
L 341.584943 139.493925 
L 342.19428 204.553377 
L 342.803616 175.876495 
L 343.412953 166.820783 
L 344.02229 162.566805 
L 344.631626 164.791863 
L 345.240963 171.060734 
L 345.850299 170.804573 
L 346.459636 163.724156 
L 347.068973 193.734147 
L 347.678309 140.442604 
L 348.287646 238.818647 
L 348.896982 178.769084 
L 349.506319 185.671599 
L 350.115656 137.259174 
L 350.724992 181.988496 
L 351.334329 189.738095 
L 351.943666 181.071864 
L 352.553002 141.466456 
L 353.162339 165.41805 
L 353.771675 169.865475 
L 354.381012 168.537426 
L 354.990349 186.436355 
L 355.599685 186.754286 
L 356.209022 172.071361 
L 356.818358 172.087012 
L 357.427695 176.655249 
L 358.646368 141.548086 
L 359.255705 203.480582 
L 359.865041 179.438305 
L 360.474378 189.8449 
L 361.083715 185.250384 
L 361.693051 188.624005 
L 362.302388 194.120843 
L 362.911725 215.990922 
L 363.521061 160.216905 
L 364.130398 188.152931 
L 364.739734 173.449835 
L 365.349071 178.444696 
L 365.958408 157.236749 
L 366.567744 160.808932 
L 367.177081 179.385172 
L 367.786417 157.719687 
L 368.395754 179.537643 
L 369.005091 158.127442 
L 369.614427 204.480666 
L 370.223764 175.813026 
L 370.8331 199.709033 
L 371.442437 150.2269 
L 372.051774 149.904485 
L 372.66111 192.515828 
L 373.270447 174.169178 
L 373.879783 168.448999 
L 374.48912 172.687232 
L 375.098457 181.946444 
L 375.707793 176.485324 
L 376.31713 157.466641 
L 376.926467 165.656664 
L 377.535803 152.747442 
L 378.14514 148.648815 
L 378.754476 155.194397 
L 379.363813 156.448603 
L 379.97315 143.565415 
L 380.582486 148.309013 
L 381.191823 168.333284 
L 381.801159 170.592813 
L 382.410496 172.097848 
L 383.019833 145.509712 
L 383.629169 170.301812 
L 384.238506 151.26729 
L 384.847842 153.469353 
L 385.457179 151.138765 
L 386.066516 152.048705 
L 386.675852 145.83696 
L 387.285189 138.174286 
L 388.503862 171.982378 
L 389.113199 168.603132 
L 389.722535 151.758232 
L 390.331872 150.048282 
L 390.941209 136.676029 
L 391.550545 159.444155 
L 392.159882 204.986174 
L 392.769218 189.976907 
L 393.378555 187.558469 
L 393.987892 147.949379 
L 394.597228 178.181484 
L 395.206565 189.906642 
L 395.815901 178.745977 
L 396.425238 177.555126 
L 397.034575 164.402288 
L 397.643911 135.842821 
L 398.253248 147.548628 
L 399.471921 156.998362 
L 400.081258 163.348853 
L 400.690594 161.549287 
L 401.299931 148.090911 
L 401.909268 156.116853 
L 402.518604 150.629671 
L 403.127941 231.669693 
L 403.737277 177.900573 
L 404.346614 182.844188 
L 404.955951 157.338249 
L 405.565287 162.252244 
L 406.174624 191.653131 
L 406.78396 192.528212 
L 407.393297 161.653609 
L 408.002634 160.622395 
L 409.221307 156.035525 
L 409.830643 152.89122 
L 410.43998 141.621042 
L 411.049317 164.258727 
L 412.26799 142.453589 
L 412.877326 154.512433 
L 413.486663 137.78221 
L 414.096 150.10773 
L 414.705336 226.354286 
L 415.314673 195.391898 
L 415.92401 200.763223 
L 416.533346 173.437281 
L 417.142683 131.140245 
L 417.752019 142.82557 
L 418.361356 173.580521 
L 418.970693 193.438794 
L 419.580029 185.994883 
L 420.189366 162.692772 
L 420.798702 127.630445 
L 421.408039 165.178332 
L 422.017376 142.014515 
L 422.626712 173.321434 
L 423.236049 167.295915 
L 423.845385 154.432256 
L 424.454722 150.419837 
L 425.064059 190.082287 
L 425.673395 168.138383 
L 426.282732 183.429665 
L 426.892068 172.214262 
L 427.501405 169.900806 
L 428.110742 173.225947 
L 428.720078 162.952576 
L 429.329415 159.98387 
L 429.938752 139.702088 
L 430.548088 166.599773 
L 431.157425 165.940756 
L 431.766761 157.654254 
L 432.376098 194.188701 
L 432.985435 163.569287 
L 433.594771 169.370643 
L 434.813444 142.77759 
L 435.422781 235.219793 
L 436.032118 193.175817 
L 436.641454 215.118734 
L 437.250791 169.50384 
L 438.469464 175.486325 
L 439.078801 145.129539 
L 439.688137 153.987613 
L 440.297474 167.075415 
L 440.906811 169.283472 
L 441.516147 150.036672 
L 442.125484 155.985034 
L 442.73482 179.686386 
L 443.344157 167.20089 
L 443.953494 182.260392 
L 444.56283 149.475322 
L 445.172167 139.385969 
L 445.781503 149.148083 
L 446.39084 149.655375 
L 447.000177 145.901185 
L 447.609513 219.302376 
L 448.21885 187.696999 
L 448.828186 184.993402 
L 449.437523 148.360363 
L 450.04686 177.132599 
L 450.656196 151.761451 
L 451.265533 180.518245 
L 451.874869 166.311962 
L 452.484206 163.819351 
L 453.093543 159.200114 
L 453.702879 156.927228 
L 454.312216 139.939569 
L 454.921553 175.078476 
L 455.530889 136.676388 
L 456.140226 157.424089 
L 456.749562 151.044194 
L 457.358899 230.932486 
L 457.968236 150.919408 
L 458.577572 172.144553 
L 459.186909 179.88813 
L 460.405582 144.393696 
L 461.014919 153.82675 
L 461.624255 180.713193 
L 462.233592 154.019527 
L 462.842928 149.651901 
L 463.452265 171.371907 
L 464.061602 221.114241 
L 464.670938 170.194299 
L 465.280275 204.984182 
L 466.498948 152.391924 
L 467.108285 174.691893 
L 467.717621 168.563563 
L 468.326958 142.308018 
L 468.936295 170.933597 
L 469.545631 161.823817 
L 470.154968 158.700779 
L 470.764304 157.106167 
L 471.373641 162.726139 
L 471.982978 170.772602 
L 472.592314 162.168509 
L 473.201651 218.038579 
L 474.420324 204.832154 
L 475.029661 196.830632 
L 475.638997 190.475751 
L 476.248334 193.880086 
L 476.85767 167.973433 
L 477.467007 177.196852 
L 478.076344 176.934857 
L 478.68568 198.224548 
L 479.295017 178.772491 
L 479.904354 194.518195 
L 480.51369 130.489808 
L 481.123027 160.67062 
L 481.732363 176.819085 
L 482.3417 178.60806 
L 482.951037 174.16697 
L 483.560373 155.559637 
L 484.16971 163.048781 
L 484.779046 193.274212 
L 485.388383 172.001455 
L 485.99772 156.120402 
L 486.607056 182.986437 
L 487.216393 158.577834 
L 487.825729 164.117318 
L 488.435066 152.715623 
L 489.044403 155.108906 
L 489.653739 159.201161 
L 490.263076 164.457753 
L 490.872412 180.016768 
L 491.481749 175.29134 
L 492.091086 157.03071 
L 492.700422 132.007746 
L 493.309759 162.787673 
L 493.919096 134.837639 
L 494.528432 133.01053 
L 495.137769 137.803845 
L 495.747105 186.257925 
L 496.356442 184.831859 
L 496.965779 134.560193 
L 497.575115 134.373221 
L 498.793788 174.654778 
L 499.403125 132.836216 
L 500.012462 133.11993 
L 500.621798 151.63741 
L 501.231135 143.226745 
L 501.840471 146.519887 
L 502.449808 154.247899 
L 503.059145 137.232168 
L 503.668481 193.599402 
L 504.277818 175.593857 
L 504.887154 153.217845 
L 505.496491 150.086001 
L 506.105828 135.934853 
L 506.715164 141.064138 
L 507.324501 139.891127 
L 507.933838 142.324055 
L 508.543174 137.939297 
L 509.152511 138.785475 
L 509.761847 147.200794 
L 510.371184 131.91526 
L 510.980521 145.492014 
L 511.589857 137.157665 
L 512.199194 150.121558 
L 512.80853 139.472102 
L 513.417867 133.00294 
L 514.027204 149.54504 
L 514.63654 140.297901 
L 515.245877 139.469204 
L 515.855213 133.446074 
L 516.46455 125.090826 
L 517.073887 127.614908 
L 517.683223 127.564012 
L 518.29256 126.107561 
L 518.901896 121.484784 
L 519.511233 119.271762 
L 520.12057 121.095511 
L 520.729906 121.984496 
L 521.339243 127.668145 
L 521.94858 236.813273 
L 522.557916 175.819039 
L 523.167253 132.358035 
L 523.776589 182.384877 
L 524.385926 194.711142 
L 524.995263 186.592913 
L 525.604599 189.98124 
L 526.213936 168.261895 
L 526.823272 129.135895 
L 527.432609 122.773708 
L 528.041946 136.092733 
L 528.651282 143.170714 
L 529.260619 130.959956 
L 529.869955 123.667337 
L 530.479292 133.7927 
L 531.088629 233.545263 
L 531.697965 204.97496 
L 532.307302 188.592657 
L 532.916639 189.836867 
L 533.525975 150.712538 
L 534.135312 145.03139 
L 534.744648 143.937414 
L 535.353985 166.98746 
L 535.963322 150.023079 
L 536.572658 180.551499 
L 537.181995 159.903033 
L 537.791331 225.636561 
L 538.400668 165.897817 
L 539.010005 145.020167 
L 539.619341 164.835264 
L 540.228678 156.365 
L 540.838014 225.207408 
L 541.447351 132.474845 
L 542.056688 172.312656 
L 542.666024 159.348149 
L 543.275361 182.423691 
L 543.884697 152.335968 
L 544.494034 154.11407 
L 545.103371 165.621928 
L 545.712707 179.33084 
L 546.322044 169.842651 
L 546.931381 229.736071 
L 547.540717 161.231979 
L 548.150054 173.213223 
L 548.75939 190.280925 
L 549.368727 141.283127 
L 549.978064 176.315862 
L 550.5874 152.738201 
L 551.196737 170.822073 
L 551.806073 160.939533 
L 552.41541 142.035536 
L 553.024747 167.3406 
L 553.634083 155.035035 
L 554.24342 225.679878 
L 554.852756 171.623981 
L 555.462093 157.177074 
L 556.07143 218.994374 
L 556.680766 165.799291 
L 557.290103 172.017388 
L 557.899439 137.012943 
L 558.508776 174.01194 
L 559.118113 157.774623 
L 559.727449 168.502331 
L 560.336786 182.766976 
L 560.946123 183.452725 
L 561.555459 198.836983 
L 562.774132 146.044613 
L 563.383469 149.892639 
L 563.992806 168.179066 
L 564.602142 150.317771 
L 565.211479 142.129749 
L 565.820815 141.286582 
L 566.430152 161.615399 
L 567.039489 148.418112 
L 567.648825 200.466539 
L 568.258162 167.678108 
L 568.867498 162.633475 
L 569.476835 149.16296 
L 570.086172 149.790412 
L 570.695508 173.600004 
L 571.914182 182.419849 
L 572.523518 228.766721 
L 573.132855 199.17231 
L 573.742191 233.031794 
L 574.351528 156.056602 
L 574.960865 172.311353 
L 575.570201 182.398752 
L 576.179538 170.835146 
L 576.788874 155.091613 
L 577.398211 195.929329 
L 578.007548 148.815172 
L 578.616884 140.319705 
L 579.226221 155.711401 
L 579.835557 156.239393 
L 580.444894 146.727531 
L 581.054231 158.07849 
L 581.663567 219.301503 
L 582.272904 143.066704 
L 582.88224 206.451781 
L 583.491577 172.723026 
L 584.100914 179.900033 
L 584.71025 144.759701 
L 585.319587 181.678843 
L 585.928924 142.454429 
L 586.53826 161.59974 
L 587.147597 154.870141 
L 587.756933 153.769246 
L 588.36627 166.350474 
L 588.975607 198.773645 
L 589.584943 142.425772 
L 590.19428 181.976716 
L 590.803616 145.106214 
L 591.412953 171.50853 
L 592.02229 151.051547 
L 592.631626 154.43472 
L 593.240963 146.610711 
L 593.850299 146.402359 
L 594.459636 155.605927 
L 595.068973 158.442381 
L 595.678309 156.423429 
L 596.287646 166.884516 
L 596.896982 146.451755 
L 597.506319 159.207504 
L 598.115656 135.001598 
L 598.724992 137.205786 
L 599.334329 207.072767 
L 600.553002 146.709077 
L 601.162339 188.665905 
L 601.771675 171.016898 
L 602.381012 144.848949 
L 602.990349 159.633732 
L 603.599685 167.082636 
L 604.209022 161.657951 
L 604.818358 138.360361 
L 605.427695 135.040828 
L 606.037032 194.922873 
L 606.646368 144.094954 
L 607.865041 210.788012 
L 608.474378 175.641468 
L 609.083715 213.181875 
L 609.693051 158.235993 
L 610.302388 146.972648 
L 610.911725 145.553293 
L 611.521061 171.450167 
L 612.130398 157.256618 
L 612.739734 153.092917 
L 613.349071 156.081475 
L 613.958408 183.907147 
L 614.567744 155.239762 
L 615.177081 162.269612 
L 615.786417 166.257121 
L 616.395754 153.903396 
L 617.005091 160.824148 
L 618.223764 192.762927 
L 618.8331 198.216506 
L 619.442437 188.083459 
L 620.051774 190.171242 
L 620.66111 158.775226 
L 621.270447 169.153674 
L 621.879783 200.999373 
L 622.48912 171.862746 
L 623.098457 164.418429 
L 623.707793 164.881044 
L 624.31713 154.164919 
L 624.926467 153.038217 
L 625.535803 146.332877 
L 626.14514 146.215142 
L 626.754476 163.920548 
L 627.363813 149.340558 
L 627.97315 162.198629 
L 628.582486 152.626724 
L 629.191823 154.132457 
L 629.801159 188.694751 
L 630.410496 167.863183 
L 631.019833 171.839289 
L 631.629169 162.585448 
L 632.238506 173.292804 
L 632.847842 163.04728 
L 633.457179 165.135214 
L 635.285189 153.976673 
L 635.894525 169.013369 
L 636.503862 156.035562 
L 637.113199 154.095267 
L 637.722535 147.394911 
L 638.331872 230.488399 
L 639.550545 176.068149 
L 640.159882 171.828557 
L 640.769218 165.739616 
L 641.378555 153.855332 
L 641.987892 162.943279 
L 642.597228 158.190902 
L 643.206565 193.514666 
L 643.815901 179.176924 
L 644.425238 158.876934 
L 645.034575 176.47411 
L 645.643911 177.534332 
L 646.253248 171.521141 
L 646.862584 157.516735 
L 647.471921 173.753768 
L 648.081258 201.641315 
L 648.690594 145.079841 
L 649.299931 180.003128 
L 649.909268 150.553572 
L 650.518604 155.408223 
L 651.127941 146.532535 
L 651.737277 216.163013 
L 652.346614 151.682822 
L 652.955951 146.840678 
L 653.565287 146.414149 
L 654.78396 187.39097 
L 655.393297 159.141194 
L 656.002634 162.604855 
L 656.61197 152.387167 
L 657.221307 161.915906 
L 657.830643 196.286527 
L 658.43998 198.853926 
L 659.049317 148.688536 
L 659.658653 151.603344 
L 660.26799 158.264301 
L 660.877326 153.717963 
L 661.486663 153.09337 
L 662.096 147.916909 
L 662.705336 149.680681 
L 663.314673 146.694739 
L 663.92401 151.943505 
L 664.533346 140.409925 
L 665.142683 195.790214 
L 665.752019 200.028041 
L 666.361356 199.490799 
L 666.970693 156.114578 
L 667.580029 221.726582 
L 668.189366 175.985244 
L 668.798702 205.761586 
L 669.408039 156.782742 
L 670.017376 157.861577 
L 670.626712 161.578228 
L 671.236049 151.666672 
L 671.845385 161.8953 
L 672.454722 187.266193 
L 673.064059 149.912999 
L 673.673395 143.735113 
L 674.282732 149.053418 
L 674.892068 143.655465 
L 675.501405 172.130441 
L 676.110742 171.711426 
L 676.720078 172.665975 
L 677.329415 205.556387 
L 677.938752 176.313464 
L 678.548088 165.342244 
L 679.157425 156.804688 
L 679.766761 166.939906 
L 679.766761 166.939906 
" clip-path="url(#p47869d03b4)" style="fill: none; stroke: #1cd3a2; stroke-width: 1.5; stroke-linecap: square"/>
   </g>
   <g id="line2d_14">
    <path d="M 71.039489 280.286767 
L 71.648825 284.175089 
L 72.258162 284.825544 
L 72.867498 285.835291 
L 73.476835 286.210887 
L 74.086172 286.423921 
L 74.695508 286.450978 
L 75.914182 286.724157 
L 78.960865 286.87303 
L 82.007548 286.906923 
L 83.226221 286.875338 
L 85.054231 286.884768 
L 85.663567 286.81448 
L 87.491577 286.89073 
L 96.631626 286.8969 
L 97.240963 286.765101 
L 98.459636 286.894778 
L 129.535803 286.918071 
L 325.132855 286.874696 
L 325.742191 286.340025 
L 326.351528 286.91749 
L 331.835557 286.917406 
L 332.444894 286.766738 
L 333.054231 286.916324 
L 347.678309 286.918021 
L 348.287646 286.817684 
L 349.506319 286.917488 
L 434.813444 286.918098 
L 435.422781 286.849458 
L 436.641454 286.9099 
L 445.781503 286.918089 
L 471.982978 286.918003 
L 472.592314 286.208368 
L 473.201651 286.906288 
L 491.481749 286.917938 
L 521.339243 286.918123 
L 521.94858 286.792469 
L 522.557916 286.917913 
L 540.228678 286.917718 
L 540.838014 286.711683 
L 541.447351 286.918026 
L 560.946123 286.917703 
L 561.555459 285.11822 
L 562.164796 286.91676 
L 571.914182 286.9176 
L 572.523518 286.427959 
L 573.132855 286.915088 
L 573.742191 286.769706 
L 574.351528 286.91794 
L 616.395754 286.918022 
L 617.005091 280.555925 
L 617.614427 286.917206 
L 679.766761 286.918031 
L 679.766761 286.918031 
" clip-path="url(#p47869d03b4)" style="fill: none; stroke: #ff0033; stroke-width: 1.5; stroke-linecap: square"/>
   </g>
   <g id="patch_3">
    <path d="M 40.603125 299.518125 
L 40.603125 22.318125 
" style="fill: none; stroke: #000000; stroke-width: 0.8; stroke-linejoin: miter; stroke-linecap: square"/>
   </g>
   <g id="patch_4">
    <path d="M 710.203125 299.518125 
L 710.203125 22.318125 
" style="fill: none; stroke: #000000; stroke-width: 0.8; stroke-linejoin: miter; stroke-linecap: square"/>
   </g>
   <g id="patch_5">
    <path d="M 40.603125 299.518125 
L 710.203125 299.518125 
" style="fill: none; stroke: #000000; stroke-width: 0.8; stroke-linejoin: miter; stroke-linecap: square"/>
   </g>
   <g id="patch_6">
    <path d="M 40.603125 22.318125 
L 710.203125 22.318125 
" style="fill: none; stroke: #000000; stroke-width: 0.8; stroke-linejoin: miter; stroke-linecap: square"/>
   </g>
   <g id="text_15">
    <!-- GAN Errors in Training -->
    <g transform="translate(309.552188 16.318125) scale(0.12 -0.12)">
     <defs>
      <path id="DejaVuSans-47" d="M 3809 666 
L 3809 1919 
L 2778 1919 
L 2778 2438 
L 4434 2438 
L 4434 434 
Q 4069 175 3628 42 
Q 3188 -91 2688 -91 
Q 1594 -91 976 548 
Q 359 1188 359 2328 
Q 359 3472 976 4111 
Q 1594 4750 2688 4750 
Q 3144 4750 3555 4637 
Q 3966 4525 4313 4306 
L 4313 3634 
Q 3963 3931 3569 4081 
Q 3175 4231 2741 4231 
Q 1884 4231 1454 3753 
Q 1025 3275 1025 2328 
Q 1025 1384 1454 906 
Q 1884 428 2741 428 
Q 3075 428 3337 486 
Q 3600 544 3809 666 
z
" transform="scale(0.015625)"/>
      <path id="DejaVuSans-41" d="M 2188 4044 
L 1331 1722 
L 3047 1722 
L 2188 4044 
z
M 1831 4666 
L 2547 4666 
L 4325 0 
L 3669 0 
L 3244 1197 
L 1141 1197 
L 716 0 
L 50 0 
L 1831 4666 
z
" transform="scale(0.015625)"/>
      <path id="DejaVuSans-4e" d="M 628 4666 
L 1478 4666 
L 3547 763 
L 3547 4666 
L 4159 4666 
L 4159 0 
L 3309 0 
L 1241 3903 
L 1241 0 
L 628 0 
L 628 4666 
z
" transform="scale(0.015625)"/>
      <path id="DejaVuSans-20" transform="scale(0.015625)"/>
      <path id="DejaVuSans-69" d="M 603 3500 
L 1178 3500 
L 1178 0 
L 603 0 
L 603 3500 
z
M 603 4863 
L 1178 4863 
L 1178 4134 
L 603 4134 
L 603 4863 
z
" transform="scale(0.015625)"/>
      <path id="DejaVuSans-6e" d="M 3513 2113 
L 3513 0 
L 2938 0 
L 2938 2094 
Q 2938 2591 2744 2837 
Q 2550 3084 2163 3084 
Q 1697 3084 1428 2787 
Q 1159 2491 1159 1978 
L 1159 0 
L 581 0 
L 581 3500 
L 1159 3500 
L 1159 2956 
Q 1366 3272 1645 3428 
Q 1925 3584 2291 3584 
Q 2894 3584 3203 3211 
Q 3513 2838 3513 2113 
z
" transform="scale(0.015625)"/>
      <path id="DejaVuSans-54" d="M -19 4666 
L 3928 4666 
L 3928 4134 
L 2272 4134 
L 2272 0 
L 1638 0 
L 1638 4134 
L -19 4134 
L -19 4666 
z
" transform="scale(0.015625)"/>
      <path id="DejaVuSans-61" d="M 2194 1759 
Q 1497 1759 1228 1600 
Q 959 1441 959 1056 
Q 959 750 1161 570 
Q 1363 391 1709 391 
Q 2188 391 2477 730 
Q 2766 1069 2766 1631 
L 2766 1759 
L 2194 1759 
z
M 3341 1997 
L 3341 0 
L 2766 0 
L 2766 531 
Q 2569 213 2275 61 
Q 1981 -91 1556 -91 
Q 1019 -91 701 211 
Q 384 513 384 1019 
Q 384 1609 779 1909 
Q 1175 2209 1959 2209 
L 2766 2209 
L 2766 2266 
Q 2766 2663 2505 2880 
Q 2244 3097 1772 3097 
Q 1472 3097 1187 3025 
Q 903 2953 641 2809 
L 641 3341 
Q 956 3463 1253 3523 
Q 1550 3584 1831 3584 
Q 2591 3584 2966 3190 
Q 3341 2797 3341 1997 
z
" transform="scale(0.015625)"/>
      <path id="DejaVuSans-67" d="M 2906 1791 
Q 2906 2416 2648 2759 
Q 2391 3103 1925 3103 
Q 1463 3103 1205 2759 
Q 947 2416 947 1791 
Q 947 1169 1205 825 
Q 1463 481 1925 481 
Q 2391 481 2648 825 
Q 2906 1169 2906 1791 
z
M 3481 434 
Q 3481 -459 3084 -895 
Q 2688 -1331 1869 -1331 
Q 1566 -1331 1297 -1286 
Q 1028 -1241 775 -1147 
L 775 -588 
Q 1028 -725 1275 -790 
Q 1522 -856 1778 -856 
Q 2344 -856 2625 -561 
Q 2906 -266 2906 331 
L 2906 616 
Q 2728 306 2450 153 
Q 2172 0 1784 0 
Q 1141 0 747 490 
Q 353 981 353 1791 
Q 353 2603 747 3093 
Q 1141 3584 1784 3584 
Q 2172 3584 2450 3431 
Q 2728 3278 2906 2969 
L 2906 3500 
L 3481 3500 
L 3481 434 
z
" transform="scale(0.015625)"/>
     </defs>
     <use xlink:href="#DejaVuSans-47"/>
     <use xlink:href="#DejaVuSans-41" x="77.490234"/>
     <use xlink:href="#DejaVuSans-4e" x="145.898438"/>
     <use xlink:href="#DejaVuSans-20" x="220.703125"/>
     <use xlink:href="#DejaVuSans-45" x="252.490234"/>
     <use xlink:href="#DejaVuSans-72" x="315.673828"/>
     <use xlink:href="#DejaVuSans-72" x="355.037109"/>
     <use xlink:href="#DejaVuSans-6f" x="393.900391"/>
     <use xlink:href="#DejaVuSans-72" x="455.082031"/>
     <use xlink:href="#DejaVuSans-73" x="496.195312"/>
     <use xlink:href="#DejaVuSans-20" x="548.294922"/>
     <use xlink:href="#DejaVuSans-69" x="580.082031"/>
     <use xlink:href="#DejaVuSans-6e" x="607.865234"/>
     <use xlink:href="#DejaVuSans-20" x="671.244141"/>
     <use xlink:href="#DejaVuSans-54" x="703.03125"/>
     <use xlink:href="#DejaVuSans-72" x="749.365234"/>
     <use xlink:href="#DejaVuSans-61" x="790.478516"/>
     <use xlink:href="#DejaVuSans-69" x="851.757812"/>
     <use xlink:href="#DejaVuSans-6e" x="879.541016"/>
     <use xlink:href="#DejaVuSans-69" x="942.919922"/>
     <use xlink:href="#DejaVuSans-6e" x="970.703125"/>
     <use xlink:href="#DejaVuSans-67" x="1034.082031"/>
    </g>
   </g>
   <g id="legend_1">
    <g id="patch_7">
     <path d="M 576.445312 59.674375 
L 703.203125 59.674375 
Q 705.203125 59.674375 705.203125 57.674375 
L 705.203125 29.318125 
Q 705.203125 27.318125 703.203125 27.318125 
L 576.445312 27.318125 
Q 574.445312 27.318125 574.445312 29.318125 
L 574.445312 57.674375 
Q 574.445312 59.674375 576.445312 59.674375 
z
" style="fill: #ffffff; opacity: 0.8; stroke: #cccccc; stroke-linejoin: miter"/>
    </g>
    <g id="line2d_15">
     <path d="M 578.445312 35.416562 
L 588.445312 35.416562 
L 598.445312 35.416562 
" style="fill: none; stroke: #1cd3a2; stroke-width: 1.5; stroke-linecap: square"/>
    </g>
    <g id="text_16">
     <!-- Generator Error -->
     <g transform="translate(606.445312 38.916562) scale(0.1 -0.1)">
      <defs>
       <path id="DejaVuSans-65" d="M 3597 1894 
L 3597 1613 
L 953 1613 
Q 991 1019 1311 708 
Q 1631 397 2203 397 
Q 2534 397 2845 478 
Q 3156 559 3463 722 
L 3463 178 
Q 3153 47 2828 -22 
Q 2503 -91 2169 -91 
Q 1331 -91 842 396 
Q 353 884 353 1716 
Q 353 2575 817 3079 
Q 1281 3584 2069 3584 
Q 2775 3584 3186 3129 
Q 3597 2675 3597 1894 
z
M 3022 2063 
Q 3016 2534 2758 2815 
Q 2500 3097 2075 3097 
Q 1594 3097 1305 2825 
Q 1016 2553 972 2059 
L 3022 2063 
z
" transform="scale(0.015625)"/>
       <path id="DejaVuSans-74" d="M 1172 4494 
L 1172 3500 
L 2356 3500 
L 2356 3053 
L 1172 3053 
L 1172 1153 
Q 1172 725 1289 603 
Q 1406 481 1766 481 
L 2356 481 
L 2356 0 
L 1766 0 
Q 1100 0 847 248 
Q 594 497 594 1153 
L 594 3053 
L 172 3053 
L 172 3500 
L 594 3500 
L 594 4494 
L 1172 4494 
z
" transform="scale(0.015625)"/>
      </defs>
      <use xlink:href="#DejaVuSans-47"/>
      <use xlink:href="#DejaVuSans-65" x="77.490234"/>
      <use xlink:href="#DejaVuSans-6e" x="139.013672"/>
      <use xlink:href="#DejaVuSans-65" x="202.392578"/>
      <use xlink:href="#DejaVuSans-72" x="263.916016"/>
      <use xlink:href="#DejaVuSans-61" x="305.029297"/>
      <use xlink:href="#DejaVuSans-74" x="366.308594"/>
      <use xlink:href="#DejaVuSans-6f" x="405.517578"/>
      <use xlink:href="#DejaVuSans-72" x="466.699219"/>
      <use xlink:href="#DejaVuSans-20" x="507.8125"/>
      <use xlink:href="#DejaVuSans-45" x="539.599609"/>
      <use xlink:href="#DejaVuSans-72" x="602.783203"/>
      <use xlink:href="#DejaVuSans-72" x="642.146484"/>
      <use xlink:href="#DejaVuSans-6f" x="681.009766"/>
      <use xlink:href="#DejaVuSans-72" x="742.191406"/>
     </g>
    </g>
    <g id="line2d_16">
     <path d="M 578.445312 50.094688 
L 588.445312 50.094688 
L 598.445312 50.094688 
" style="fill: none; stroke: #ff0033; stroke-width: 1.5; stroke-linecap: square"/>
    </g>
    <g id="text_17">
     <!-- Discriminator Error -->
     <g transform="translate(606.445312 53.594688) scale(0.1 -0.1)">
      <defs>
       <path id="DejaVuSans-44" d="M 1259 4147 
L 1259 519 
L 2022 519 
Q 2988 519 3436 956 
Q 3884 1394 3884 2338 
Q 3884 3275 3436 3711 
Q 2988 4147 2022 4147 
L 1259 4147 
z
M 628 4666 
L 1925 4666 
Q 3281 4666 3915 4102 
Q 4550 3538 4550 2338 
Q 4550 1131 3912 565 
Q 3275 0 1925 0 
L 628 0 
L 628 4666 
z
" transform="scale(0.015625)"/>
       <path id="DejaVuSans-6d" d="M 3328 2828 
Q 3544 3216 3844 3400 
Q 4144 3584 4550 3584 
Q 5097 3584 5394 3201 
Q 5691 2819 5691 2113 
L 5691 0 
L 5113 0 
L 5113 2094 
Q 5113 2597 4934 2840 
Q 4756 3084 4391 3084 
Q 3944 3084 3684 2787 
Q 3425 2491 3425 1978 
L 3425 0 
L 2847 0 
L 2847 2094 
Q 2847 2600 2669 2842 
Q 2491 3084 2119 3084 
Q 1678 3084 1418 2786 
Q 1159 2488 1159 1978 
L 1159 0 
L 581 0 
L 581 3500 
L 1159 3500 
L 1159 2956 
Q 1356 3278 1631 3431 
Q 1906 3584 2284 3584 
Q 2666 3584 2933 3390 
Q 3200 3197 3328 2828 
z
" transform="scale(0.015625)"/>
      </defs>
      <use xlink:href="#DejaVuSans-44"/>
      <use xlink:href="#DejaVuSans-69" x="77.001953"/>
      <use xlink:href="#DejaVuSans-73" x="104.785156"/>
      <use xlink:href="#DejaVuSans-63" x="156.884766"/>
      <use xlink:href="#DejaVuSans-72" x="211.865234"/>
      <use xlink:href="#DejaVuSans-69" x="252.978516"/>
      <use xlink:href="#DejaVuSans-6d" x="280.761719"/>
      <use xlink:href="#DejaVuSans-69" x="378.173828"/>
      <use xlink:href="#DejaVuSans-6e" x="405.957031"/>
      <use xlink:href="#DejaVuSans-61" x="469.335938"/>
      <use xlink:href="#DejaVuSans-74" x="530.615234"/>
      <use xlink:href="#DejaVuSans-6f" x="569.824219"/>
      <use xlink:href="#DejaVuSans-72" x="631.005859"/>
      <use xlink:href="#DejaVuSans-20" x="672.119141"/>
      <use xlink:href="#DejaVuSans-45" x="703.90625"/>
      <use xlink:href="#DejaVuSans-72" x="767.089844"/>
      <use xlink:href="#DejaVuSans-72" x="806.453125"/>
      <use xlink:href="#DejaVuSans-6f" x="845.316406"/>
      <use xlink:href="#DejaVuSans-72" x="906.498047"/>
     </g>
    </g>
   </g>
  </g>
 </g>
 <defs>
  <clipPath id="p47869d03b4">
   <rect x="40.603125" y="22.318125" width="669.6" height="277.2"/>
  </clipPath>
 </defs>
</svg>
